<svg xmlns="http://www.w3.org/2000/svg" width="1200" height="900" viewBox="0 0 1200 900">
    <defs><filter id="cell_glow_0" x="-50%" y="-50%" width="200%" height="200%">
        <feGaussianBlur stdDeviation="4" result="blur"/>
        <feMerge>
            <feMergeNode in="blur"/>
            <feMergeNode in="SourceGraphic"/>
        </feMerge>
    </filter><filter id="cell_glow_1" x="-50%" y="-50%" width="200%" height="200%">
        <feGaussianBlur stdDeviation="4" result="blur"/>
        <feMerge>
            <feMergeNode in="blur"/>
            <feMergeNode in="SourceGraphic"/>
        </feMerge>
    </filter><filter id="cell_glow_2" x="-50%" y="-50%" width="200%" height="200%">
        <feGaussianBlur stdDeviation="4" result="blur"/>
        <feMerge>
            <feMergeNode in="blur"/>
            <feMergeNode in="SourceGraphic"/>
        </feMerge>
    </filter></defs>
    <rect width="1200" height="900" fill="#0a0e14"/>
    
    <text x="48" y="52" font-family="Menlo, 'SF Mono', Consolas, monospace" font-size="12" letter-spacing="3" fill="#00e5a0">OMOP-CDM</text>
    <text x="1152" y="52" font-family="Menlo, 'SF Mono', Consolas, monospace" font-size="12" fill="#4a5570" text-anchor="end">SYNTHETIC DEMO DATA</text>
    <text x="48" y="92" font-family="Georgia, 'Times New Roman', serif" font-size="30" font-weight="bold" fill="#eef2ff">DATA QUALITY SCORECARD</text>
    <text x="48" y="118" font-family="'Helvetica Neue', Helvetica, Arial, sans-serif" font-size="14" fill="#8b96b3">OHDSI-style DQD checks against the loaded warehouse — mean pass rate by table and category</text>
    <line x1="48" y1="136" x2="1152" y2="136" stroke="#232d42" stroke-width="1"/>
    <text x="370.0" y="170" font-family="'Helvetica Neue', Helvetica, Arial, sans-serif" font-size="14" letter-spacing="1.5" fill="#8b96b3" text-anchor="middle" font-weight="bold">COMPLETENESS</text><text x="606.0" y="170" font-family="'Helvetica Neue', Helvetica, Arial, sans-serif" font-size="14" letter-spacing="1.5" fill="#8b96b3" text-anchor="middle" font-weight="bold">CONFORMANCE</text><text x="842.0" y="170" font-family="'Helvetica Neue', Helvetica, Arial, sans-serif" font-size="14" letter-spacing="1.5" fill="#8b96b3" text-anchor="middle" font-weight="bold">PLAUSIBILITY</text><text x="1078.0" y="170" font-family="'Helvetica Neue', Helvetica, Arial, sans-serif" font-size="14" letter-spacing="1.5" fill="#8b96b3" text-anchor="middle" font-weight="bold">TEMPORAL</text><text x="236" y="255.0" font-family="Menlo, 'SF Mono', Consolas, monospace" font-size="14" fill="#eef2ff" text-anchor="end">person</text><rect x="260" y="190" width="220" height="120" rx="6" fill="#0d1220" stroke="#232d42" stroke-width="1"/><path d="M 274.0,224.0 L 278.8,219.5 L 283.6,224.0 L 300.7,224.0 L 302.7,232.0 L 304.7,182.3 L 307.7,238.0 L 311.7,224.0 L 333.5,213.7 L 346.0,224.0 L 370.0,224.0 L 374.8,220.2 L 379.6,224.0 L 396.7,224.0 L 398.7,232.0 L 400.7,181.2 L 403.7,238.0 L 407.7,224.0 L 429.5,214.0 L 442.0,224.0 L 466.0,224.0" stroke="#00e5a0" stroke-width="1.8" fill="none" opacity="0.85" filter="url(#cell_glow_0)"/><text x="276" y="286" font-family="Menlo, 'SF Mono', Consolas, monospace" font-size="30" font-weight="bold" fill="#eef2ff">100<tspan font-size="16" fill="#8b96b3">%</tspan></text><circle cx="462" cy="278" r="5" fill="#00e5a0" filter="url(#cell_glow_0)"/><rect x="496" y="190" width="220" height="120" rx="6" fill="#0d1220" stroke="#232d42" stroke-width="1"/><path d="M 510.0,224.0 L 514.8,220.0 L 519.6,224.0 L 536.7,224.0 L 538.7,232.0 L 540.7,181.4 L 543.7,238.0 L 547.7,224.0 L 569.5,213.7 L 582.0,224.0 L 606.0,224.0 L 610.8,220.0 L 615.6,224.0 L 632.7,224.0 L 634.7,232.0 L 636.7,182.9 L 639.7,238.0 L 643.7,224.0 L 665.5,213.5 L 678.0,224.0 L 702.0,224.0" stroke="#00e5a0" stroke-width="1.8" fill="none" opacity="0.85" filter="url(#cell_glow_0)"/><text x="512" y="286" font-family="Menlo, 'SF Mono', Consolas, monospace" font-size="30" font-weight="bold" fill="#eef2ff">100<tspan font-size="16" fill="#8b96b3">%</tspan></text><circle cx="698" cy="278" r="5" fill="#00e5a0" filter="url(#cell_glow_0)"/><rect x="732" y="190" width="220" height="120" rx="6" fill="#0d1220" stroke="#232d42" stroke-width="1"/><path d="M 746.0,224.0 L 750.8,219.5 L 755.6,224.0 L 772.7,224.0 L 774.7,232.0 L 776.7,182.4 L 779.7,238.0 L 783.7,224.0 L 805.5,213.7 L 818.0,224.0 L 842.0,224.0 L 846.8,219.9 L 851.6,224.0 L 868.7,224.0 L 870.7,232.0 L 872.7,182.6 L 875.7,238.0 L 879.7,224.0 L 901.5,214.5 L 914.0,224.0 L 938.0,224.0" stroke="#00e5a0" stroke-width="1.8" fill="none" opacity="0.85" filter="url(#cell_glow_0)"/><text x="748" y="286" font-family="Menlo, 'SF Mono', Consolas, monospace" font-size="30" font-weight="bold" fill="#eef2ff">100<tspan font-size="16" fill="#8b96b3">%</tspan></text><circle cx="934" cy="278" r="5" fill="#00e5a0" filter="url(#cell_glow_0)"/><rect x="968" y="190" width="220" height="120" rx="6" fill="#0d1220" stroke="#232d42" stroke-width="1"/><text x="1078.0" y="255.0" font-family="Menlo, 'SF Mono', Consolas, monospace" font-size="13" fill="#4a5570" text-anchor="middle">— n/a —</text><text x="236" y="391.0" font-family="Menlo, 'SF Mono', Consolas, monospace" font-size="14" fill="#eef2ff" text-anchor="end">visit_occurrence</text><rect x="260" y="326" width="220" height="120" rx="6" fill="#0d1220" stroke="#232d42" stroke-width="1"/><path d="M 274.0,360.0 L 278.8,355.6 L 283.6,360.0 L 300.7,360.0 L 302.7,368.0 L 304.7,318.7 L 307.7,374.0 L 311.7,360.0 L 333.5,349.8 L 346.0,360.0 L 370.0,360.0 L 374.8,355.8 L 379.6,360.0 L 396.7,360.0 L 398.7,368.0 L 400.7,318.0 L 403.7,374.0 L 407.7,360.0 L 429.5,349.4 L 442.0,360.0 L 466.0,360.0" stroke="#00e5a0" stroke-width="1.8" fill="none" opacity="0.85" filter="url(#cell_glow_0)"/><text x="276" y="422" font-family="Menlo, 'SF Mono', Consolas, monospace" font-size="30" font-weight="bold" fill="#eef2ff">100<tspan font-size="16" fill="#8b96b3">%</tspan></text><circle cx="462" cy="414" r="5" fill="#00e5a0" filter="url(#cell_glow_0)"/><rect x="496" y="326" width="220" height="120" rx="6" fill="#0d1220" stroke="#232d42" stroke-width="1"/><text x="606.0" y="391.0" font-family="Menlo, 'SF Mono', Consolas, monospace" font-size="13" fill="#4a5570" text-anchor="middle">— n/a —</text><rect x="732" y="326" width="220" height="120" rx="6" fill="#0d1220" stroke="#232d42" stroke-width="1"/><text x="842.0" y="391.0" font-family="Menlo, 'SF Mono', Consolas, monospace" font-size="13" fill="#4a5570" text-anchor="middle">— n/a —</text><rect x="968" y="326" width="220" height="120" rx="6" fill="#0d1220" stroke="#232d42" stroke-width="1"/><path d="M 982.0,360.0 L 986.8,356.2 L 991.6,360.0 L 1008.7,360.0 L 1010.7,368.0 L 1012.7,317.8 L 1015.7,374.0 L 1019.7,360.0 L 1041.5,349.8 L 1054.0,360.0 L 1078.0,360.0 L 1082.8,356.3 L 1087.6,360.0 L 1104.7,360.0 L 1106.7,368.0 L 1108.7,317.1 L 1111.7,374.0 L 1115.7,360.0 L 1137.5,349.3 L 1150.0,360.0 L 1174.0,360.0" stroke="#00e5a0" stroke-width="1.8" fill="none" opacity="0.85" filter="url(#cell_glow_0)"/><text x="984" y="422" font-family="Menlo, 'SF Mono', Consolas, monospace" font-size="30" font-weight="bold" fill="#eef2ff">100<tspan font-size="16" fill="#8b96b3">%</tspan></text><circle cx="1170" cy="414" r="5" fill="#00e5a0" filter="url(#cell_glow_0)"/><text x="236" y="527.0" font-family="Menlo, 'SF Mono', Consolas, monospace" font-size="14" fill="#eef2ff" text-anchor="end">condition_occurrence</text><rect x="260" y="462" width="220" height="120" rx="6" fill="#0d1220" stroke="#232d42" stroke-width="1"/><path d="M 274.0,496.0 L 278.8,492.1 L 283.6,496.0 L 300.7,496.0 L 302.7,503.5 L 304.7,456.0 L 307.7,509.0 L 311.7,496.0 L 333.5,486.5 L 346.0,496.0 L 370.0,496.0 L 374.8,492.6 L 379.6,496.0 L 396.7,496.0 L 398.7,503.5 L 400.7,457.7 L 403.7,509.0 L 407.7,496.0 L 429.5,486.9 L 442.0,496.0 L 466.0,496.0" stroke="#ffb020" stroke-width="1.8" fill="none" opacity="0.85" filter="url(#cell_glow_1)"/><text x="276" y="558" font-family="Menlo, 'SF Mono', Consolas, monospace" font-size="30" font-weight="bold" fill="#eef2ff">89<tspan font-size="16" fill="#8b96b3">%</tspan></text><circle cx="462" cy="550" r="5" fill="#ffb020" filter="url(#cell_glow_1)"/><rect x="496" y="462" width="220" height="120" rx="6" fill="#0d1220" stroke="#232d42" stroke-width="1"/><path d="M 510.0,496.0 L 514.8,492.3 L 519.6,496.0 L 536.7,496.0 L 538.7,504.0 L 540.7,454.2 L 543.7,510.0 L 547.7,496.0 L 569.5,485.8 L 582.0,496.0 L 606.0,496.0 L 610.8,492.2 L 615.6,496.0 L 632.7,496.0 L 634.7,504.0 L 636.7,454.5 L 639.7,510.0 L 643.7,496.0 L 665.5,485.7 L 678.0,496.0 L 702.0,496.0" stroke="#00e5a0" stroke-width="1.8" fill="none" opacity="0.85" filter="url(#cell_glow_0)"/><text x="512" y="558" font-family="Menlo, 'SF Mono', Consolas, monospace" font-size="30" font-weight="bold" fill="#eef2ff">100<tspan font-size="16" fill="#8b96b3">%</tspan></text><circle cx="698" cy="550" r="5" fill="#00e5a0" filter="url(#cell_glow_0)"/><rect x="732" y="462" width="220" height="120" rx="6" fill="#0d1220" stroke="#232d42" stroke-width="1"/><text x="842.0" y="527.0" font-family="Menlo, 'SF Mono', Consolas, monospace" font-size="13" fill="#4a5570" text-anchor="middle">— n/a —</text><rect x="968" y="462" width="220" height="120" rx="6" fill="#0d1220" stroke="#232d42" stroke-width="1"/><path d="M 982.0,496.0 L 986.8,492.3 L 991.6,496.0 L 1008.7,496.0 L 1010.7,504.0 L 1012.7,454.3 L 1015.7,510.0 L 1019.7,496.0 L 1041.5,485.8 L 1054.0,496.0 L 1078.0,496.0 L 1082.8,491.9 L 1087.6,496.0 L 1104.7,496.0 L 1106.7,504.0 L 1108.7,453.9 L 1111.7,510.0 L 1115.7,496.0 L 1137.5,486.1 L 1150.0,496.0 L 1174.0,496.0" stroke="#00e5a0" stroke-width="1.8" fill="none" opacity="0.85" filter="url(#cell_glow_0)"/><text x="984" y="558" font-family="Menlo, 'SF Mono', Consolas, monospace" font-size="30" font-weight="bold" fill="#eef2ff">100<tspan font-size="16" fill="#8b96b3">%</tspan></text><circle cx="1170" cy="550" r="5" fill="#00e5a0" filter="url(#cell_glow_0)"/><text x="236" y="663.0" font-family="Menlo, 'SF Mono', Consolas, monospace" font-size="14" fill="#eef2ff" text-anchor="end">drug_exposure</text><rect x="260" y="598" width="220" height="120" rx="6" fill="#0d1220" stroke="#232d42" stroke-width="1"/><path d="M 274.0,632.0 L 278.8,627.9 L 283.6,632.0 L 300.7,632.0 L 302.7,640.0 L 304.7,589.5 L 307.7,646.0 L 311.7,632.0 L 333.5,621.9 L 346.0,632.0 L 370.0,632.0 L 374.8,628.0 L 379.6,632.0 L 396.7,632.0 L 398.7,640.0 L 400.7,589.7 L 403.7,646.0 L 407.7,632.0 L 429.5,621.5 L 442.0,632.0 L 466.0,632.0" stroke="#00e5a0" stroke-width="1.8" fill="none" opacity="0.85" filter="url(#cell_glow_0)"/><text x="276" y="694" font-family="Menlo, 'SF Mono', Consolas, monospace" font-size="30" font-weight="bold" fill="#eef2ff">100<tspan font-size="16" fill="#8b96b3">%</tspan></text><circle cx="462" cy="686" r="5" fill="#00e5a0" filter="url(#cell_glow_0)"/><rect x="496" y="598" width="220" height="120" rx="6" fill="#0d1220" stroke="#232d42" stroke-width="1"/><path d="M 510.0,632.0 L 514.8,628.4 L 519.6,632.0 L 536.7,632.0 L 538.7,640.0 L 540.7,590.6 L 543.7,646.0 L 547.7,632.0 L 569.5,621.9 L 582.0,632.0 L 606.0,632.0 L 610.8,627.8 L 615.6,632.0 L 632.7,632.0 L 634.7,640.0 L 636.7,589.3 L 639.7,646.0 L 643.7,632.0 L 665.5,622.5 L 678.0,632.0 L 702.0,632.0" stroke="#00e5a0" stroke-width="1.8" fill="none" opacity="0.85" filter="url(#cell_glow_0)"/><text x="512" y="694" font-family="Menlo, 'SF Mono', Consolas, monospace" font-size="30" font-weight="bold" fill="#eef2ff">100<tspan font-size="16" fill="#8b96b3">%</tspan></text><circle cx="698" cy="686" r="5" fill="#00e5a0" filter="url(#cell_glow_0)"/><rect x="732" y="598" width="220" height="120" rx="6" fill="#0d1220" stroke="#232d42" stroke-width="1"/><text x="842.0" y="663.0" font-family="Menlo, 'SF Mono', Consolas, monospace" font-size="13" fill="#4a5570" text-anchor="middle">— n/a —</text><rect x="968" y="598" width="220" height="120" rx="6" fill="#0d1220" stroke="#232d42" stroke-width="1"/><path d="M 982.0,632.0 L 986.8,628.5 L 991.6,632.0 L 1008.7,632.0 L 1010.7,640.0 L 1012.7,590.7 L 1015.7,646.0 L 1019.7,632.0 L 1041.5,621.9 L 1054.0,632.0 L 1078.0,632.0 L 1082.8,627.5 L 1087.6,632.0 L 1104.7,632.0 L 1106.7,640.0 L 1108.7,590.7 L 1111.7,646.0 L 1115.7,632.0 L 1137.5,621.5 L 1150.0,632.0 L 1174.0,632.0" stroke="#00e5a0" stroke-width="1.8" fill="none" opacity="0.85" filter="url(#cell_glow_0)"/><text x="984" y="694" font-family="Menlo, 'SF Mono', Consolas, monospace" font-size="30" font-weight="bold" fill="#eef2ff">100<tspan font-size="16" fill="#8b96b3">%</tspan></text><circle cx="1170" cy="686" r="5" fill="#00e5a0" filter="url(#cell_glow_0)"/><text x="48" y="832" font-family="'Helvetica Neue', Helvetica, Arial, sans-serif" font-size="12.5" fill="#4a5570">condition_occurrence / completeness reads below 100% on purpose — condition_end_date is checked against</text><text x="48" y="852" font-family="'Helvetica Neue', Helvetica, Arial, sans-serif" font-size="12.5" fill="#4a5570">a 30% threshold, not 99%, since most conditions in a real population are chronic or still active.</text><text x="48" y="878" font-family="Menlo, 'SF Mono', Consolas, monospace" font-size="11.5" fill="#4a5570">src/quality/dqd_checks.py</text>
    </svg>