<svg xmlns="http://www.w3.org/2000/svg" width="1300" height="900" viewBox="0 0 1300 900">
    <defs><filter id="rung_glow_codeine" x="-50%" y="-50%" width="200%" height="200%">
        <feGaussianBlur stdDeviation="3.5" result="blur"/>
        <feMerge>
            <feMergeNode in="blur"/>
            <feMergeNode in="SourceGraphic"/>
        </feMerge>
    </filter><filter id="rung_glow_hydrocodone" x="-50%" y="-50%" width="200%" height="200%">
        <feGaussianBlur stdDeviation="3.5" result="blur"/>
        <feMerge>
            <feMergeNode in="blur"/>
            <feMergeNode in="SourceGraphic"/>
        </feMerge>
    </filter><filter id="rung_glow_oxycodone" x="-50%" y="-50%" width="200%" height="200%">
        <feGaussianBlur stdDeviation="3.5" result="blur"/>
        <feMerge>
            <feMergeNode in="blur"/>
            <feMergeNode in="SourceGraphic"/>
        </feMerge>
    </filter><filter id="rung_glow_fentanyl" x="-50%" y="-50%" width="200%" height="200%">
        <feGaussianBlur stdDeviation="3.5" result="blur"/>
        <feMerge>
            <feMergeNode in="blur"/>
            <feMergeNode in="SourceGraphic"/>
        </feMerge>
    </filter></defs>
    <rect width="1300" height="900" fill="#0a0e14"/>
    
    <text x="48" y="52" font-family="Menlo, 'SF Mono', Consolas, monospace" font-size="12" letter-spacing="3" fill="#00e5a0">OMOP-CDM</text>
    <text x="1252" y="52" font-family="Menlo, 'SF Mono', Consolas, monospace" font-size="12" fill="#4a5570" text-anchor="end">SYNTHETIC DEMO DATA</text>
    <text x="48" y="92" font-family="Georgia, 'Times New Roman', serif" font-size="30" font-weight="bold" fill="#eef2ff">OPIOID DOSE ESCALATION</text>
    <text x="48" y="118" font-family="'Helvetica Neue', Helvetica, Arial, sans-serif" font-size="14" fill="#8b96b3">Sample patient telemetry, aligned to each patient's first opioid exposure — day 0, not the calendar</text>
    <line x1="48" y1="136" x2="1252" y2="136" stroke="#232d42" stroke-width="1"/>
    <circle cx="48" cy="160" r="5" fill="#3ddbd9" filter="url(#rung_glow_codeine)"/><text x="62" y="164" font-family="'Helvetica Neue', Helvetica, Arial, sans-serif" font-size="13" fill="#8b96b3">Codeine</text><circle cx="278" cy="160" r="5" fill="#00e5a0" filter="url(#rung_glow_hydrocodone)"/><text x="292" y="164" font-family="'Helvetica Neue', Helvetica, Arial, sans-serif" font-size="13" fill="#8b96b3">Hydrocodone</text><circle cx="508" cy="160" r="5" fill="#ffb020" filter="url(#rung_glow_oxycodone)"/><text x="522" y="164" font-family="'Helvetica Neue', Helvetica, Arial, sans-serif" font-size="13" fill="#8b96b3">Oxycodone</text><circle cx="738" cy="160" r="5" fill="#ff4d5e" filter="url(#rung_glow_fentanyl)"/><text x="752" y="164" font-family="'Helvetica Neue', Helvetica, Arial, sans-serif" font-size="13" fill="#8b96b3">Fentanyl</text><text x="1252" y="164" font-family="'Helvetica Neue', Helvetica, Arial, sans-serif" font-size="12.5" fill="#4a5570" text-anchor="end">spike height = potency · bar length = days on drug</text><line x1="250.0" y1="196" x2="250.0" y2="794" stroke="#1a2233" stroke-width="1"/><text x="250.0" y="816" font-family="Menlo, 'SF Mono', Consolas, monospace" font-size="11" fill="#4a5570" text-anchor="middle">0d</text><line x1="408.2" y1="196" x2="408.2" y2="794" stroke="#1a2233" stroke-width="1"/><text x="408.2" y="816" font-family="Menlo, 'SF Mono', Consolas, monospace" font-size="11" fill="#4a5570" text-anchor="middle">30d</text><line x1="566.4" y1="196" x2="566.4" y2="794" stroke="#1a2233" stroke-width="1"/><text x="566.4" y="816" font-family="Menlo, 'SF Mono', Consolas, monospace" font-size="11" fill="#4a5570" text-anchor="middle">60d</text><line x1="724.6" y1="196" x2="724.6" y2="794" stroke="#1a2233" stroke-width="1"/><text x="724.6" y="816" font-family="Menlo, 'SF Mono', Consolas, monospace" font-size="11" fill="#4a5570" text-anchor="middle">90d</text><line x1="882.8" y1="196" x2="882.8" y2="794" stroke="#1a2233" stroke-width="1"/><text x="882.8" y="816" font-family="Menlo, 'SF Mono', Consolas, monospace" font-size="11" fill="#4a5570" text-anchor="middle">120d</text><line x1="1041.1" y1="196" x2="1041.1" y2="794" stroke="#1a2233" stroke-width="1"/><text x="1041.1" y="816" font-family="Menlo, 'SF Mono', Consolas, monospace" font-size="11" fill="#4a5570" text-anchor="middle">150d</text><line x1="1199.3" y1="196" x2="1199.3" y2="794" stroke="#1a2233" stroke-width="1"/><text x="1199.3" y="816" font-family="Menlo, 'SF Mono', Consolas, monospace" font-size="11" fill="#4a5570" text-anchor="middle">180d</text><text x="234" y="235.0" font-family="Menlo, 'SF Mono', Consolas, monospace" font-size="12.5" fill="#8b96b3" text-anchor="end">PT-01</text><line x1="250" y1="231.0" x2="1252" y2="231.0" stroke="#232d42" stroke-width="1"/><line x1="250.0" y1="231.0" x2="487.3" y2="231.0" stroke="#3ddbd9" stroke-width="3" stroke-linecap="round" opacity="0.35"/><path d="M 243.0,231.0 L 247.6,231.0 L 248.9,234.2 L 250.0,216.6 L 251.1,235.0 L 252.4,231.0 L 257.0,231.0" stroke="#3ddbd9" stroke-width="1.8" fill="none" filter="url(#rung_glow_codeine)"/><line x1="408.2" y1="231.0" x2="645.5" y2="231.0" stroke="#00e5a0" stroke-width="3" stroke-linecap="round" opacity="0.35"/><path d="M 401.2,231.0 L 405.8,231.0 L 407.2,234.9 L 408.2,213.4 L 409.3,235.9 L 410.7,231.0 L 415.2,231.0" stroke="#00e5a0" stroke-width="1.8" fill="none" filter="url(#rung_glow_hydrocodone)"/><line x1="587.5" y1="231.0" x2="824.8" y2="231.0" stroke="#ffb020" stroke-width="3" stroke-linecap="round" opacity="0.35"/><path d="M 580.5,231.0 L 585.1,231.0 L 586.5,235.6 L 587.5,210.2 L 588.6,236.8 L 590.0,231.0 L 594.5,231.0" stroke="#ffb020" stroke-width="1.8" fill="none" filter="url(#rung_glow_oxycodone)"/><line x1="772.1" y1="231.0" x2="1009.4" y2="231.0" stroke="#ff4d5e" stroke-width="3" stroke-linecap="round" opacity="0.35"/><path d="M 765.1,231.0 L 769.6,231.0 L 771.0,236.3 L 772.1,207.0 L 773.1,237.7 L 774.5,231.0 L 779.1,231.0" stroke="#ff4d5e" stroke-width="1.8" fill="none" filter="url(#rung_glow_fentanyl)"/><text x="234" y="277.0" font-family="Menlo, 'SF Mono', Consolas, monospace" font-size="12.5" fill="#8b96b3" text-anchor="end">PT-02</text><line x1="250" y1="273.0" x2="1252" y2="273.0" stroke="#232d42" stroke-width="1"/><line x1="250.0" y1="273.0" x2="487.3" y2="273.0" stroke="#3ddbd9" stroke-width="3" stroke-linecap="round" opacity="0.35"/><path d="M 243.0,273.0 L 247.6,273.0 L 248.9,276.2 L 250.0,258.6 L 251.1,277.0 L 252.4,273.0 L 257.0,273.0" stroke="#3ddbd9" stroke-width="1.8" fill="none" filter="url(#rung_glow_codeine)"/><line x1="450.4" y1="273.0" x2="687.7" y2="273.0" stroke="#00e5a0" stroke-width="3" stroke-linecap="round" opacity="0.35"/><path d="M 443.4,273.0 L 447.9,273.0 L 449.3,276.9 L 450.4,255.4 L 451.4,277.9 L 452.8,273.0 L 457.4,273.0" stroke="#00e5a0" stroke-width="1.8" fill="none" filter="url(#rung_glow_hydrocodone)"/><line x1="619.2" y1="273.0" x2="856.5" y2="273.0" stroke="#ffb020" stroke-width="3" stroke-linecap="round" opacity="0.35"/><path d="M 612.2,273.0 L 616.7,273.0 L 618.1,277.6 L 619.2,252.2 L 620.2,278.8 L 621.6,273.0 L 626.2,273.0" stroke="#ffb020" stroke-width="1.8" fill="none" filter="url(#rung_glow_oxycodone)"/><line x1="777.4" y1="273.0" x2="1014.7" y2="273.0" stroke="#ff4d5e" stroke-width="3" stroke-linecap="round" opacity="0.35"/><path d="M 770.4,273.0 L 774.9,273.0 L 776.3,278.3 L 777.4,249.0 L 778.4,279.7 L 779.8,273.0 L 784.4,273.0" stroke="#ff4d5e" stroke-width="1.8" fill="none" filter="url(#rung_glow_fentanyl)"/><text x="234" y="319.0" font-family="Menlo, 'SF Mono', Consolas, monospace" font-size="12.5" fill="#8b96b3" text-anchor="end">PT-03</text><line x1="250" y1="315.0" x2="1252" y2="315.0" stroke="#232d42" stroke-width="1"/><line x1="250.0" y1="315.0" x2="487.3" y2="315.0" stroke="#3ddbd9" stroke-width="3" stroke-linecap="round" opacity="0.35"/><path d="M 243.0,315.0 L 247.6,315.0 L 248.9,318.2 L 250.0,300.6 L 251.1,319.0 L 252.4,315.0 L 257.0,315.0" stroke="#3ddbd9" stroke-width="1.8" fill="none" filter="url(#rung_glow_codeine)"/><line x1="413.5" y1="315.0" x2="650.8" y2="315.0" stroke="#00e5a0" stroke-width="3" stroke-linecap="round" opacity="0.35"/><path d="M 406.5,315.0 L 411.0,315.0 L 412.4,318.9 L 413.5,297.4 L 414.5,319.9 L 415.9,315.0 L 420.5,315.0" stroke="#00e5a0" stroke-width="1.8" fill="none" filter="url(#rung_glow_hydrocodone)"/><line x1="592.8" y1="315.0" x2="830.1" y2="315.0" stroke="#ffb020" stroke-width="3" stroke-linecap="round" opacity="0.35"/><path d="M 585.8,315.0 L 590.3,315.0 L 591.7,319.6 L 592.8,294.2 L 593.8,320.8 L 595.2,315.0 L 599.8,315.0" stroke="#ffb020" stroke-width="1.8" fill="none" filter="url(#rung_glow_oxycodone)"/><line x1="782.6" y1="315.0" x2="1020.0" y2="315.0" stroke="#ff4d5e" stroke-width="3" stroke-linecap="round" opacity="0.35"/><path d="M 775.6,315.0 L 780.2,315.0 L 781.6,320.3 L 782.6,291.0 L 783.7,321.7 L 785.1,315.0 L 789.6,315.0" stroke="#ff4d5e" stroke-width="1.8" fill="none" filter="url(#rung_glow_fentanyl)"/><text x="234" y="361.0" font-family="Menlo, 'SF Mono', Consolas, monospace" font-size="12.5" fill="#8b96b3" text-anchor="end">PT-04</text><line x1="250" y1="357.0" x2="1252" y2="357.0" stroke="#232d42" stroke-width="1"/><line x1="250.0" y1="357.0" x2="487.3" y2="357.0" stroke="#3ddbd9" stroke-width="3" stroke-linecap="round" opacity="0.35"/><path d="M 243.0,357.0 L 247.6,357.0 L 248.9,360.2 L 250.0,342.6 L 251.1,361.0 L 252.4,357.0 L 257.0,357.0" stroke="#3ddbd9" stroke-width="1.8" fill="none" filter="url(#rung_glow_codeine)"/><line x1="408.2" y1="357.0" x2="645.5" y2="357.0" stroke="#00e5a0" stroke-width="3" stroke-linecap="round" opacity="0.35"/><path d="M 401.2,357.0 L 405.8,357.0 L 407.2,360.9 L 408.2,339.4 L 409.3,361.9 L 410.7,357.0 L 415.2,357.0" stroke="#00e5a0" stroke-width="1.8" fill="none" filter="url(#rung_glow_hydrocodone)"/><line x1="571.7" y1="357.0" x2="809.0" y2="357.0" stroke="#ffb020" stroke-width="3" stroke-linecap="round" opacity="0.35"/><path d="M 564.7,357.0 L 569.2,357.0 L 570.6,361.6 L 571.7,336.2 L 572.7,362.8 L 574.1,357.0 L 578.7,357.0" stroke="#ffb020" stroke-width="1.8" fill="none" filter="url(#rung_glow_oxycodone)"/><line x1="793.2" y1="357.0" x2="1030.5" y2="357.0" stroke="#ff4d5e" stroke-width="3" stroke-linecap="round" opacity="0.35"/><path d="M 786.2,357.0 L 790.7,357.0 L 792.1,362.3 L 793.2,333.0 L 794.2,363.7 L 795.6,357.0 L 800.2,357.0" stroke="#ff4d5e" stroke-width="1.8" fill="none" filter="url(#rung_glow_fentanyl)"/><text x="234" y="403.0" font-family="Menlo, 'SF Mono', Consolas, monospace" font-size="12.5" fill="#8b96b3" text-anchor="end">PT-05</text><line x1="250" y1="399.0" x2="1252" y2="399.0" stroke="#232d42" stroke-width="1"/><line x1="250.0" y1="399.0" x2="487.3" y2="399.0" stroke="#3ddbd9" stroke-width="3" stroke-linecap="round" opacity="0.35"/><path d="M 243.0,399.0 L 247.6,399.0 L 248.9,402.2 L 250.0,384.6 L 251.1,403.0 L 252.4,399.0 L 257.0,399.0" stroke="#3ddbd9" stroke-width="1.8" fill="none" filter="url(#rung_glow_codeine)"/><line x1="408.2" y1="399.0" x2="645.5" y2="399.0" stroke="#00e5a0" stroke-width="3" stroke-linecap="round" opacity="0.35"/><path d="M 401.2,399.0 L 405.8,399.0 L 407.2,402.9 L 408.2,381.4 L 409.3,403.9 L 410.7,399.0 L 415.2,399.0" stroke="#00e5a0" stroke-width="1.8" fill="none" filter="url(#rung_glow_hydrocodone)"/><line x1="629.7" y1="399.0" x2="867.0" y2="399.0" stroke="#ffb020" stroke-width="3" stroke-linecap="round" opacity="0.35"/><path d="M 622.7,399.0 L 627.3,399.0 L 628.7,403.6 L 629.7,378.2 L 630.8,404.8 L 632.2,399.0 L 636.7,399.0" stroke="#ffb020" stroke-width="1.8" fill="none" filter="url(#rung_glow_oxycodone)"/><line x1="793.2" y1="399.0" x2="1030.5" y2="399.0" stroke="#ff4d5e" stroke-width="3" stroke-linecap="round" opacity="0.35"/><path d="M 786.2,399.0 L 790.7,399.0 L 792.1,404.3 L 793.2,375.0 L 794.2,405.7 L 795.6,399.0 L 800.2,399.0" stroke="#ff4d5e" stroke-width="1.8" fill="none" filter="url(#rung_glow_fentanyl)"/><text x="234" y="445.0" font-family="Menlo, 'SF Mono', Consolas, monospace" font-size="12.5" fill="#8b96b3" text-anchor="end">PT-06</text><line x1="250" y1="441.0" x2="1252" y2="441.0" stroke="#232d42" stroke-width="1"/><line x1="250.0" y1="441.0" x2="487.3" y2="441.0" stroke="#3ddbd9" stroke-width="3" stroke-linecap="round" opacity="0.35"/><path d="M 243.0,441.0 L 247.6,441.0 L 248.9,444.2 L 250.0,426.6 L 251.1,445.0 L 252.4,441.0 L 257.0,441.0" stroke="#3ddbd9" stroke-width="1.8" fill="none" filter="url(#rung_glow_codeine)"/><line x1="418.8" y1="441.0" x2="656.1" y2="441.0" stroke="#00e5a0" stroke-width="3" stroke-linecap="round" opacity="0.35"/><path d="M 411.8,441.0 L 416.3,441.0 L 417.7,444.9 L 418.8,423.4 L 419.8,445.9 L 421.2,441.0 L 425.8,441.0" stroke="#00e5a0" stroke-width="1.8" fill="none" filter="url(#rung_glow_hydrocodone)"/><line x1="603.3" y1="441.0" x2="840.7" y2="441.0" stroke="#ffb020" stroke-width="3" stroke-linecap="round" opacity="0.35"/><path d="M 596.3,441.0 L 600.9,441.0 L 602.3,445.6 L 603.3,420.2 L 604.4,446.8 L 605.8,441.0 L 610.3,441.0" stroke="#ffb020" stroke-width="1.8" fill="none" filter="url(#rung_glow_oxycodone)"/><line x1="803.7" y1="441.0" x2="1041.1" y2="441.0" stroke="#ff4d5e" stroke-width="3" stroke-linecap="round" opacity="0.35"/><path d="M 796.7,441.0 L 801.3,441.0 L 802.7,446.3 L 803.7,417.0 L 804.8,447.7 L 806.2,441.0 L 810.7,441.0" stroke="#ff4d5e" stroke-width="1.8" fill="none" filter="url(#rung_glow_fentanyl)"/><text x="234" y="487.0" font-family="Menlo, 'SF Mono', Consolas, monospace" font-size="12.5" fill="#8b96b3" text-anchor="end">PT-07</text><line x1="250" y1="483.0" x2="1252" y2="483.0" stroke="#232d42" stroke-width="1"/><line x1="250.0" y1="483.0" x2="487.3" y2="483.0" stroke="#3ddbd9" stroke-width="3" stroke-linecap="round" opacity="0.35"/><path d="M 243.0,483.0 L 247.6,483.0 L 248.9,486.2 L 250.0,468.6 L 251.1,487.0 L 252.4,483.0 L 257.0,483.0" stroke="#3ddbd9" stroke-width="1.8" fill="none" filter="url(#rung_glow_codeine)"/><line x1="413.5" y1="483.0" x2="650.8" y2="483.0" stroke="#00e5a0" stroke-width="3" stroke-linecap="round" opacity="0.35"/><path d="M 406.5,483.0 L 411.0,483.0 L 412.4,486.9 L 413.5,465.4 L 414.5,487.9 L 415.9,483.0 L 420.5,483.0" stroke="#00e5a0" stroke-width="1.8" fill="none" filter="url(#rung_glow_hydrocodone)"/><line x1="592.8" y1="483.0" x2="830.1" y2="483.0" stroke="#ffb020" stroke-width="3" stroke-linecap="round" opacity="0.35"/><path d="M 585.8,483.0 L 590.3,483.0 L 591.7,487.6 L 592.8,462.2 L 593.8,488.8 L 595.2,483.0 L 599.8,483.0" stroke="#ffb020" stroke-width="1.8" fill="none" filter="url(#rung_glow_oxycodone)"/><line x1="803.7" y1="483.0" x2="1041.1" y2="483.0" stroke="#ff4d5e" stroke-width="3" stroke-linecap="round" opacity="0.35"/><path d="M 796.7,483.0 L 801.3,483.0 L 802.7,488.3 L 803.7,459.0 L 804.8,489.7 L 806.2,483.0 L 810.7,483.0" stroke="#ff4d5e" stroke-width="1.8" fill="none" filter="url(#rung_glow_fentanyl)"/><text x="234" y="529.0" font-family="Menlo, 'SF Mono', Consolas, monospace" font-size="12.5" fill="#8b96b3" text-anchor="end">PT-08</text><line x1="250" y1="525.0" x2="1252" y2="525.0" stroke="#232d42" stroke-width="1"/><line x1="250.0" y1="525.0" x2="487.3" y2="525.0" stroke="#3ddbd9" stroke-width="3" stroke-linecap="round" opacity="0.35"/><path d="M 243.0,525.0 L 247.6,525.0 L 248.9,528.2 L 250.0,510.6 L 251.1,529.0 L 252.4,525.0 L 257.0,525.0" stroke="#3ddbd9" stroke-width="1.8" fill="none" filter="url(#rung_glow_codeine)"/><line x1="418.8" y1="525.0" x2="656.1" y2="525.0" stroke="#00e5a0" stroke-width="3" stroke-linecap="round" opacity="0.35"/><path d="M 411.8,525.0 L 416.3,525.0 L 417.7,528.9 L 418.8,507.4 L 419.8,529.9 L 421.2,525.0 L 425.8,525.0" stroke="#00e5a0" stroke-width="1.8" fill="none" filter="url(#rung_glow_hydrocodone)"/><line x1="582.2" y1="525.0" x2="819.6" y2="525.0" stroke="#ffb020" stroke-width="3" stroke-linecap="round" opacity="0.35"/><path d="M 575.2,525.0 L 579.8,525.0 L 581.2,529.6 L 582.2,504.2 L 583.3,530.8 L 584.7,525.0 L 589.2,525.0" stroke="#ffb020" stroke-width="1.8" fill="none" filter="url(#rung_glow_oxycodone)"/><line x1="830.1" y1="525.0" x2="1067.4" y2="525.0" stroke="#ff4d5e" stroke-width="3" stroke-linecap="round" opacity="0.35"/><path d="M 823.1,525.0 L 827.7,525.0 L 829.1,530.3 L 830.1,501.0 L 831.2,531.7 L 832.6,525.0 L 837.1,525.0" stroke="#ff4d5e" stroke-width="1.8" fill="none" filter="url(#rung_glow_fentanyl)"/><text x="234" y="571.0" font-family="Menlo, 'SF Mono', Consolas, monospace" font-size="12.5" fill="#8b96b3" text-anchor="end">PT-09</text><line x1="250" y1="567.0" x2="1252" y2="567.0" stroke="#232d42" stroke-width="1"/><line x1="250.0" y1="567.0" x2="487.3" y2="567.0" stroke="#3ddbd9" stroke-width="3" stroke-linecap="round" opacity="0.35"/><path d="M 243.0,567.0 L 247.6,567.0 L 248.9,570.2 L 250.0,552.6 L 251.1,571.0 L 252.4,567.0 L 257.0,567.0" stroke="#3ddbd9" stroke-width="1.8" fill="none" filter="url(#rung_glow_codeine)"/><line x1="424.0" y1="567.0" x2="661.3" y2="567.0" stroke="#00e5a0" stroke-width="3" stroke-linecap="round" opacity="0.35"/><path d="M 417.0,567.0 L 421.6,567.0 L 423.0,570.9 L 424.0,549.4 L 425.1,571.9 L 426.5,567.0 L 431.0,567.0" stroke="#00e5a0" stroke-width="1.8" fill="none" filter="url(#rung_glow_hydrocodone)"/><line x1="640.3" y1="567.0" x2="877.6" y2="567.0" stroke="#ffb020" stroke-width="3" stroke-linecap="round" opacity="0.35"/><path d="M 633.3,567.0 L 637.8,567.0 L 639.2,571.6 L 640.3,546.2 L 641.3,572.8 L 642.7,567.0 L 647.3,567.0" stroke="#ffb020" stroke-width="1.8" fill="none" filter="url(#rung_glow_oxycodone)"/><line x1="840.7" y1="567.0" x2="1078.0" y2="567.0" stroke="#ff4d5e" stroke-width="3" stroke-linecap="round" opacity="0.35"/><path d="M 833.7,567.0 L 838.2,567.0 L 839.6,572.3 L 840.7,543.0 L 841.7,573.7 L 843.1,567.0 L 847.7,567.0" stroke="#ff4d5e" stroke-width="1.8" fill="none" filter="url(#rung_glow_fentanyl)"/><text x="234" y="613.0" font-family="Menlo, 'SF Mono', Consolas, monospace" font-size="12.5" fill="#8b96b3" text-anchor="end">PT-10</text><line x1="250" y1="609.0" x2="1252" y2="609.0" stroke="#232d42" stroke-width="1"/><line x1="250.0" y1="609.0" x2="487.3" y2="609.0" stroke="#3ddbd9" stroke-width="3" stroke-linecap="round" opacity="0.35"/><path d="M 243.0,609.0 L 247.6,609.0 L 248.9,612.2 L 250.0,594.6 L 251.1,613.0 L 252.4,609.0 L 257.0,609.0" stroke="#3ddbd9" stroke-width="1.8" fill="none" filter="url(#rung_glow_codeine)"/><line x1="434.6" y1="609.0" x2="671.9" y2="609.0" stroke="#00e5a0" stroke-width="3" stroke-linecap="round" opacity="0.35"/><path d="M 427.6,609.0 L 432.1,609.0 L 433.5,612.9 L 434.6,591.4 L 435.6,613.9 L 437.0,609.0 L 441.6,609.0" stroke="#00e5a0" stroke-width="1.8" fill="none" filter="url(#rung_glow_hydrocodone)"/><line x1="666.6" y1="609.0" x2="903.9" y2="609.0" stroke="#ffb020" stroke-width="3" stroke-linecap="round" opacity="0.35"/><path d="M 659.6,609.0 L 664.2,609.0 L 665.6,613.6 L 666.6,588.2 L 667.7,614.8 L 669.1,609.0 L 673.6,609.0" stroke="#ffb020" stroke-width="1.8" fill="none" filter="url(#rung_glow_oxycodone)"/><line x1="840.7" y1="609.0" x2="1078.0" y2="609.0" stroke="#ff4d5e" stroke-width="3" stroke-linecap="round" opacity="0.35"/><path d="M 833.7,609.0 L 838.2,609.0 L 839.6,614.3 L 840.7,585.0 L 841.7,615.7 L 843.1,609.0 L 847.7,609.0" stroke="#ff4d5e" stroke-width="1.8" fill="none" filter="url(#rung_glow_fentanyl)"/><text x="234" y="655.0" font-family="Menlo, 'SF Mono', Consolas, monospace" font-size="12.5" fill="#8b96b3" text-anchor="end">PT-11</text><line x1="250" y1="651.0" x2="1252" y2="651.0" stroke="#232d42" stroke-width="1"/><line x1="250.0" y1="651.0" x2="487.3" y2="651.0" stroke="#3ddbd9" stroke-width="3" stroke-linecap="round" opacity="0.35"/><path d="M 243.0,651.0 L 247.6,651.0 L 248.9,654.2 L 250.0,636.6 L 251.1,655.0 L 252.4,651.0 L 257.0,651.0" stroke="#3ddbd9" stroke-width="1.8" fill="none" filter="url(#rung_glow_codeine)"/><line x1="513.7" y1="651.0" x2="751.0" y2="651.0" stroke="#00e5a0" stroke-width="3" stroke-linecap="round" opacity="0.35"/><path d="M 506.7,651.0 L 511.2,651.0 L 512.6,654.9 L 513.7,633.4 L 514.7,655.9 L 516.1,651.0 L 520.7,651.0" stroke="#00e5a0" stroke-width="1.8" fill="none" filter="url(#rung_glow_hydrocodone)"/><line x1="677.2" y1="651.0" x2="914.5" y2="651.0" stroke="#ffb020" stroke-width="3" stroke-linecap="round" opacity="0.35"/><path d="M 670.2,651.0 L 674.7,651.0 L 676.1,655.6 L 677.2,630.2 L 678.2,656.8 L 679.6,651.0 L 684.2,651.0" stroke="#ffb020" stroke-width="1.8" fill="none" filter="url(#rung_glow_oxycodone)"/><line x1="851.2" y1="651.0" x2="1088.5" y2="651.0" stroke="#ff4d5e" stroke-width="3" stroke-linecap="round" opacity="0.35"/><path d="M 844.2,651.0 L 848.7,651.0 L 850.1,656.3 L 851.2,627.0 L 852.2,657.7 L 853.6,651.0 L 858.2,651.0" stroke="#ff4d5e" stroke-width="1.8" fill="none" filter="url(#rung_glow_fentanyl)"/><text x="234" y="697.0" font-family="Menlo, 'SF Mono', Consolas, monospace" font-size="12.5" fill="#8b96b3" text-anchor="end">PT-12</text><line x1="250" y1="693.0" x2="1252" y2="693.0" stroke="#232d42" stroke-width="1"/><line x1="250.0" y1="693.0" x2="487.3" y2="693.0" stroke="#3ddbd9" stroke-width="3" stroke-linecap="round" opacity="0.35"/><path d="M 243.0,693.0 L 247.6,693.0 L 248.9,696.2 L 250.0,678.6 L 251.1,697.0 L 252.4,693.0 L 257.0,693.0" stroke="#3ddbd9" stroke-width="1.8" fill="none" filter="url(#rung_glow_codeine)"/><line x1="476.8" y1="693.0" x2="714.1" y2="693.0" stroke="#00e5a0" stroke-width="3" stroke-linecap="round" opacity="0.35"/><path d="M 469.8,693.0 L 474.3,693.0 L 475.7,696.9 L 476.8,675.4 L 477.8,697.9 L 479.2,693.0 L 483.8,693.0" stroke="#00e5a0" stroke-width="1.8" fill="none" filter="url(#rung_glow_hydrocodone)"/><line x1="698.3" y1="693.0" x2="935.6" y2="693.0" stroke="#ffb020" stroke-width="3" stroke-linecap="round" opacity="0.35"/><path d="M 691.3,693.0 L 695.8,693.0 L 697.2,697.6 L 698.3,672.2 L 699.3,698.8 L 700.7,693.0 L 705.3,693.0" stroke="#ffb020" stroke-width="1.8" fill="none" filter="url(#rung_glow_oxycodone)"/><line x1="856.5" y1="693.0" x2="1093.8" y2="693.0" stroke="#ff4d5e" stroke-width="3" stroke-linecap="round" opacity="0.35"/><path d="M 849.5,693.0 L 854.0,693.0 L 855.4,698.3 L 856.5,669.0 L 857.5,699.7 L 858.9,693.0 L 863.5,693.0" stroke="#ff4d5e" stroke-width="1.8" fill="none" filter="url(#rung_glow_fentanyl)"/><text x="234" y="739.0" font-family="Menlo, 'SF Mono', Consolas, monospace" font-size="12.5" fill="#8b96b3" text-anchor="end">PT-13</text><line x1="250" y1="735.0" x2="1252" y2="735.0" stroke="#232d42" stroke-width="1"/><line x1="250.0" y1="735.0" x2="487.3" y2="735.0" stroke="#3ddbd9" stroke-width="3" stroke-linecap="round" opacity="0.35"/><path d="M 243.0,735.0 L 247.6,735.0 L 248.9,738.2 L 250.0,720.6 L 251.1,739.0 L 252.4,735.0 L 257.0,735.0" stroke="#3ddbd9" stroke-width="1.8" fill="none" filter="url(#rung_glow_codeine)"/><line x1="476.8" y1="735.0" x2="714.1" y2="735.0" stroke="#00e5a0" stroke-width="3" stroke-linecap="round" opacity="0.35"/><path d="M 469.8,735.0 L 474.3,735.0 L 475.7,738.9 L 476.8,717.4 L 477.8,739.9 L 479.2,735.0 L 483.8,735.0" stroke="#00e5a0" stroke-width="1.8" fill="none" filter="url(#rung_glow_hydrocodone)"/><line x1="661.3" y1="735.0" x2="898.7" y2="735.0" stroke="#ffb020" stroke-width="3" stroke-linecap="round" opacity="0.35"/><path d="M 654.3,735.0 L 658.9,735.0 L 660.3,739.6 L 661.3,714.2 L 662.4,740.8 L 663.8,735.0 L 668.3,735.0" stroke="#ffb020" stroke-width="1.8" fill="none" filter="url(#rung_glow_oxycodone)"/><line x1="856.5" y1="735.0" x2="1093.8" y2="735.0" stroke="#ff4d5e" stroke-width="3" stroke-linecap="round" opacity="0.35"/><path d="M 849.5,735.0 L 854.0,735.0 L 855.4,740.3 L 856.5,711.0 L 857.5,741.7 L 858.9,735.0 L 863.5,735.0" stroke="#ff4d5e" stroke-width="1.8" fill="none" filter="url(#rung_glow_fentanyl)"/><text x="234" y="781.0" font-family="Menlo, 'SF Mono', Consolas, monospace" font-size="12.5" fill="#8b96b3" text-anchor="end">PT-14</text><line x1="250" y1="777.0" x2="1252" y2="777.0" stroke="#232d42" stroke-width="1"/><line x1="250.0" y1="777.0" x2="487.3" y2="777.0" stroke="#3ddbd9" stroke-width="3" stroke-linecap="round" opacity="0.35"/><path d="M 243.0,777.0 L 247.6,777.0 L 248.9,780.2 L 250.0,762.6 L 251.1,781.0 L 252.4,777.0 L 257.0,777.0" stroke="#3ddbd9" stroke-width="1.8" fill="none" filter="url(#rung_glow_codeine)"/><line x1="482.0" y1="777.0" x2="719.4" y2="777.0" stroke="#00e5a0" stroke-width="3" stroke-linecap="round" opacity="0.35"/><path d="M 475.0,777.0 L 479.6,777.0 L 481.0,780.9 L 482.0,759.4 L 483.1,781.9 L 484.5,777.0 L 489.0,777.0" stroke="#00e5a0" stroke-width="1.8" fill="none" filter="url(#rung_glow_hydrocodone)"/><line x1="687.7" y1="777.0" x2="925.0" y2="777.0" stroke="#ffb020" stroke-width="3" stroke-linecap="round" opacity="0.35"/><path d="M 680.7,777.0 L 685.3,777.0 L 686.7,781.6 L 687.7,756.2 L 688.8,782.8 L 690.2,777.0 L 694.7,777.0" stroke="#ffb020" stroke-width="1.8" fill="none" filter="url(#rung_glow_oxycodone)"/><line x1="861.7" y1="777.0" x2="1099.1" y2="777.0" stroke="#ff4d5e" stroke-width="3" stroke-linecap="round" opacity="0.35"/><path d="M 854.7,777.0 L 859.3,777.0 L 860.7,782.3 L 861.7,753.0 L 862.8,783.7 L 864.2,777.0 L 868.7,777.0" stroke="#ff4d5e" stroke-width="1.8" fill="none" filter="url(#rung_glow_fentanyl)"/><text x="48" y="858" font-family="'Helvetica Neue', Helvetica, Arial, sans-serif" font-size="12.5" fill="#4a5570">The pattern is consistent across the sample — codeine, then hydrocodone, then oxycodone, then fentanyl,</text><text x="48" y="876" font-family="'Helvetica Neue', Helvetica, Arial, sans-serif" font-size="12.5" fill="#4a5570">roughly 30–45 days apart, exactly the ladder scripts/demo_codes.py defines and the generator seeds.</text>
    </svg>